# xmcd
#
# Track frame offsets:
#	200
#	12465
#	22620
#	34655
#	46375
#	68022
#	81915
#	94162
#	111982
#	122197
#	149192
#	165880
#	197140
#
# Disc length: 2834 seconds
# Revision: 1
# Processed by: cddbd v1.5.2PL0 Copyright (c) Steve Scherf et al.
# Submitted via: dBpowerAMP V12.0
#
DISCID=ac0b100d
DTITLE=Boone Creek - One Way Track
DYEAR=1991
DGENRE=Country
TTITLE0=One Way Track
TTITLE1=Head Over Heels
TTITLE2=Little Community Church
TTITLE3=Mississippi Queen
TTITLE4=In the Pines
TTITLE5=Can't You Hear Me Callin'
TTITLE6=No Mother or Dad
TTITLE7=I'm Blue, I'm Lonesome
TTITLE8=Daniel Prayed
TTITLE9=Sally Gooden
TTITLE10=Paradise
TTITLE11=Pathway of Teardrops
TTITLE12=Walking in Jerusalem
EXTD=
EXTT0=
EXTT1=
EXTT2=
EXTT3=
EXTT4=
EXTT5=
EXTT6=
EXTT7=
EXTT8=
EXTT9=
EXTT10=
EXTT11=
EXTT12=
PLAYORDER=
